<?xml version="1.0" encoding="utf-8" standalone="no"?>
<!DOCTYPE svg PUBLIC "-//W3C//DTD SVG 1.1//EN"
  "http://www.w3.org/Graphics/SVG/1.1/DTD/svg11.dtd">
<svg xmlns:xlink="http://www.w3.org/1999/xlink" width="460.8pt" height="345.6pt" viewBox="0 0 460.8 345.6" xmlns="http://www.w3.org/2000/svg" version="1.1">
 <metadata>
  <rdf:RDF xmlns:dc="http://purl.org/dc/elements/1.1/" xmlns:cc="http://creativecommons.org/ns#" xmlns:rdf="http://www.w3.org/1999/02/22-rdf-syntax-ns#">
   <cc:Work>
    <dc:type rdf:resource="http://purl.org/dc/dcmitype/StillImage"/>
    <dc:date>2022-02-25T01:34:36.226943</dc:date>
    <dc:format>image/svg+xml</dc:format>
    <dc:creator>
     <cc:Agent>
      <dc:title>Matplotlib v3.5.1, https://matplotlib.org/</dc:title>
     </cc:Agent>
    </dc:creator>
   </cc:Work>
  </rdf:RDF>
 </metadata>
 <defs>
  <style type="text/css">*{stroke-linejoin: round; stroke-linecap: butt}</style>
 </defs>
 <g id="figure_1">
  <g id="patch_1">
   <path d="M 0 345.6 
L 460.8 345.6 
L 460.8 0 
L 0 0 
z
" style="fill: #ffffff"/>
  </g>
  <g id="axes_1">
   <g id="patch_2">
    <path d="M 57.6 307.584 
L 414.72 307.584 
L 414.72 41.472 
L 57.6 41.472 
z
" style="fill: #ffffff"/>
   </g>
   <g id="matplotlib.axis_1">
    <g id="xtick_1">
     <g id="line2d_1">
      <defs>
       <path id="m5fd331cae0" d="M 0 0 
L 0 3.5 
" style="stroke: #000000; stroke-width: 0.8"/>
      </defs>
      <g>
       <use xlink:href="#m5fd331cae0" x="111.027402" y="307.584" style="stroke: #000000; stroke-width: 0.8"/>
      </g>
     </g>
     <g id="text_1">
      <!-- 20 -->
      <g transform="translate(104.664902 322.182437)scale(0.1 -0.1)">
       <defs>
        <path id="DejaVuSans-32" d="M 1228 531 
L 3431 531 
L 3431 0 
L 469 0 
L 469 531 
Q 828 903 1448 1529 
Q 2069 2156 2228 2338 
Q 2531 2678 2651 2914 
Q 2772 3150 2772 3378 
Q 2772 3750 2511 3984 
Q 2250 4219 1831 4219 
Q 1534 4219 1204 4116 
Q 875 4013 500 3803 
L 500 4441 
Q 881 4594 1212 4672 
Q 1544 4750 1819 4750 
Q 2544 4750 2975 4387 
Q 3406 4025 3406 3419 
Q 3406 3131 3298 2873 
Q 3191 2616 2906 2266 
Q 2828 2175 2409 1742 
Q 1991 1309 1228 531 
z
" transform="scale(0.015625)"/>
        <path id="DejaVuSans-30" d="M 2034 4250 
Q 1547 4250 1301 3770 
Q 1056 3291 1056 2328 
Q 1056 1369 1301 889 
Q 1547 409 2034 409 
Q 2525 409 2770 889 
Q 3016 1369 3016 2328 
Q 3016 3291 2770 3770 
Q 2525 4250 2034 4250 
z
M 2034 4750 
Q 2819 4750 3233 4129 
Q 3647 3509 3647 2328 
Q 3647 1150 3233 529 
Q 2819 -91 2034 -91 
Q 1250 -91 836 529 
Q 422 1150 422 2328 
Q 422 3509 836 4129 
Q 1250 4750 2034 4750 
z
" transform="scale(0.015625)"/>
       </defs>
       <use xlink:href="#DejaVuSans-32"/>
       <use xlink:href="#DejaVuSans-30" x="63.623047"/>
      </g>
     </g>
    </g>
    <g id="xtick_2">
     <g id="line2d_2">
      <g>
       <use xlink:href="#m5fd331cae0" x="167.266772" y="307.584" style="stroke: #000000; stroke-width: 0.8"/>
      </g>
     </g>
     <g id="text_2">
      <!-- 40 -->
      <g transform="translate(160.904272 322.182437)scale(0.1 -0.1)">
       <defs>
        <path id="DejaVuSans-34" d="M 2419 4116 
L 825 1625 
L 2419 1625 
L 2419 4116 
z
M 2253 4666 
L 3047 4666 
L 3047 1625 
L 3713 1625 
L 3713 1100 
L 3047 1100 
L 3047 0 
L 2419 0 
L 2419 1100 
L 313 1100 
L 313 1709 
L 2253 4666 
z
" transform="scale(0.015625)"/>
       </defs>
       <use xlink:href="#DejaVuSans-34"/>
       <use xlink:href="#DejaVuSans-30" x="63.623047"/>
      </g>
     </g>
    </g>
    <g id="xtick_3">
     <g id="line2d_3">
      <g>
       <use xlink:href="#m5fd331cae0" x="223.506142" y="307.584" style="stroke: #000000; stroke-width: 0.8"/>
      </g>
     </g>
     <g id="text_3">
      <!-- 60 -->
      <g transform="translate(217.143642 322.182437)scale(0.1 -0.1)">
       <defs>
        <path id="DejaVuSans-36" d="M 2113 2584 
Q 1688 2584 1439 2293 
Q 1191 2003 1191 1497 
Q 1191 994 1439 701 
Q 1688 409 2113 409 
Q 2538 409 2786 701 
Q 3034 994 3034 1497 
Q 3034 2003 2786 2293 
Q 2538 2584 2113 2584 
z
M 3366 4563 
L 3366 3988 
Q 3128 4100 2886 4159 
Q 2644 4219 2406 4219 
Q 1781 4219 1451 3797 
Q 1122 3375 1075 2522 
Q 1259 2794 1537 2939 
Q 1816 3084 2150 3084 
Q 2853 3084 3261 2657 
Q 3669 2231 3669 1497 
Q 3669 778 3244 343 
Q 2819 -91 2113 -91 
Q 1303 -91 875 529 
Q 447 1150 447 2328 
Q 447 3434 972 4092 
Q 1497 4750 2381 4750 
Q 2619 4750 2861 4703 
Q 3103 4656 3366 4563 
z
" transform="scale(0.015625)"/>
       </defs>
       <use xlink:href="#DejaVuSans-36"/>
       <use xlink:href="#DejaVuSans-30" x="63.623047"/>
      </g>
     </g>
    </g>
    <g id="xtick_4">
     <g id="line2d_4">
      <g>
       <use xlink:href="#m5fd331cae0" x="279.745512" y="307.584" style="stroke: #000000; stroke-width: 0.8"/>
      </g>
     </g>
     <g id="text_4">
      <!-- 80 -->
      <g transform="translate(273.383012 322.182437)scale(0.1 -0.1)">
       <defs>
        <path id="DejaVuSans-38" d="M 2034 2216 
Q 1584 2216 1326 1975 
Q 1069 1734 1069 1313 
Q 1069 891 1326 650 
Q 1584 409 2034 409 
Q 2484 409 2743 651 
Q 3003 894 3003 1313 
Q 3003 1734 2745 1975 
Q 2488 2216 2034 2216 
z
M 1403 2484 
Q 997 2584 770 2862 
Q 544 3141 544 3541 
Q 544 4100 942 4425 
Q 1341 4750 2034 4750 
Q 2731 4750 3128 4425 
Q 3525 4100 3525 3541 
Q 3525 3141 3298 2862 
Q 3072 2584 2669 2484 
Q 3125 2378 3379 2068 
Q 3634 1759 3634 1313 
Q 3634 634 3220 271 
Q 2806 -91 2034 -91 
Q 1263 -91 848 271 
Q 434 634 434 1313 
Q 434 1759 690 2068 
Q 947 2378 1403 2484 
z
M 1172 3481 
Q 1172 3119 1398 2916 
Q 1625 2713 2034 2713 
Q 2441 2713 2670 2916 
Q 2900 3119 2900 3481 
Q 2900 3844 2670 4047 
Q 2441 4250 2034 4250 
Q 1625 4250 1398 4047 
Q 1172 3844 1172 3481 
z
" transform="scale(0.015625)"/>
       </defs>
       <use xlink:href="#DejaVuSans-38"/>
       <use xlink:href="#DejaVuSans-30" x="63.623047"/>
      </g>
     </g>
    </g>
    <g id="xtick_5">
     <g id="line2d_5">
      <g>
       <use xlink:href="#m5fd331cae0" x="335.984882" y="307.584" style="stroke: #000000; stroke-width: 0.8"/>
      </g>
     </g>
     <g id="text_5">
      <!-- 100 -->
      <g transform="translate(326.441132 322.182437)scale(0.1 -0.1)">
       <defs>
        <path id="DejaVuSans-31" d="M 794 531 
L 1825 531 
L 1825 4091 
L 703 3866 
L 703 4441 
L 1819 4666 
L 2450 4666 
L 2450 531 
L 3481 531 
L 3481 0 
L 794 0 
L 794 531 
z
" transform="scale(0.015625)"/>
       </defs>
       <use xlink:href="#DejaVuSans-31"/>
       <use xlink:href="#DejaVuSans-30" x="63.623047"/>
       <use xlink:href="#DejaVuSans-30" x="127.246094"/>
      </g>
     </g>
    </g>
    <g id="xtick_6">
     <g id="line2d_6">
      <g>
       <use xlink:href="#m5fd331cae0" x="392.224252" y="307.584" style="stroke: #000000; stroke-width: 0.8"/>
      </g>
     </g>
     <g id="text_6">
      <!-- 120 -->
      <g transform="translate(382.680502 322.182437)scale(0.1 -0.1)">
       <use xlink:href="#DejaVuSans-31"/>
       <use xlink:href="#DejaVuSans-32" x="63.623047"/>
       <use xlink:href="#DejaVuSans-30" x="127.246094"/>
      </g>
     </g>
    </g>
    <g id="text_7">
     <!-- $p$ -->
     <g transform="translate(232.96 335.84025)scale(0.1 -0.1)">
      <defs>
       <path id="DejaVuSans-Oblique-70" d="M 3175 2156 
Q 3175 2616 2975 2859 
Q 2775 3103 2400 3103 
Q 2144 3103 1911 2972 
Q 1678 2841 1497 2591 
Q 1319 2344 1212 1994 
Q 1106 1644 1106 1300 
Q 1106 863 1306 627 
Q 1506 391 1875 391 
Q 2147 391 2380 519 
Q 2613 647 2778 891 
Q 2956 1147 3065 1494 
Q 3175 1841 3175 2156 
z
M 1394 2969 
Q 1625 3272 1939 3428 
Q 2253 3584 2638 3584 
Q 3175 3584 3472 3232 
Q 3769 2881 3769 2247 
Q 3769 1728 3584 1258 
Q 3400 788 3053 416 
Q 2822 169 2531 39 
Q 2241 -91 1919 -91 
Q 1547 -91 1294 64 
Q 1041 219 916 525 
L 556 -1331 
L -19 -1331 
L 922 3500 
L 1497 3500 
L 1394 2969 
z
" transform="scale(0.015625)"/>
      </defs>
      <use xlink:href="#DejaVuSans-Oblique-70"/>
     </g>
    </g>
   </g>
   <g id="matplotlib.axis_2">
    <g id="ytick_1">
     <g id="line2d_7">
      <defs>
       <path id="m356957b8c8" d="M 0 0 
L -3.5 0 
" style="stroke: #000000; stroke-width: 0.8"/>
      </defs>
      <g>
       <use xlink:href="#m356957b8c8" x="57.6" y="295.508226" style="stroke: #000000; stroke-width: 0.8"/>
      </g>
     </g>
     <g id="text_8">
      <!-- 0.0 -->
      <g transform="translate(34.696875 299.307445)scale(0.1 -0.1)">
       <defs>
        <path id="DejaVuSans-2e" d="M 684 794 
L 1344 794 
L 1344 0 
L 684 0 
L 684 794 
z
" transform="scale(0.015625)"/>
       </defs>
       <use xlink:href="#DejaVuSans-30"/>
       <use xlink:href="#DejaVuSans-2e" x="63.623047"/>
       <use xlink:href="#DejaVuSans-30" x="95.410156"/>
      </g>
     </g>
    </g>
    <g id="ytick_2">
     <g id="line2d_8">
      <g>
       <use xlink:href="#m356957b8c8" x="57.6" y="247.120181" style="stroke: #000000; stroke-width: 0.8"/>
      </g>
     </g>
     <g id="text_9">
      <!-- 0.2 -->
      <g transform="translate(34.696875 250.9194)scale(0.1 -0.1)">
       <use xlink:href="#DejaVuSans-30"/>
       <use xlink:href="#DejaVuSans-2e" x="63.623047"/>
       <use xlink:href="#DejaVuSans-32" x="95.410156"/>
      </g>
     </g>
    </g>
    <g id="ytick_3">
     <g id="line2d_9">
      <g>
       <use xlink:href="#m356957b8c8" x="57.6" y="198.732136" style="stroke: #000000; stroke-width: 0.8"/>
      </g>
     </g>
     <g id="text_10">
      <!-- 0.4 -->
      <g transform="translate(34.696875 202.531354)scale(0.1 -0.1)">
       <use xlink:href="#DejaVuSans-30"/>
       <use xlink:href="#DejaVuSans-2e" x="63.623047"/>
       <use xlink:href="#DejaVuSans-34" x="95.410156"/>
      </g>
     </g>
    </g>
    <g id="ytick_4">
     <g id="line2d_10">
      <g>
       <use xlink:href="#m356957b8c8" x="57.6" y="150.34409" style="stroke: #000000; stroke-width: 0.8"/>
      </g>
     </g>
     <g id="text_11">
      <!-- 0.6 -->
      <g transform="translate(34.696875 154.143309)scale(0.1 -0.1)">
       <use xlink:href="#DejaVuSans-30"/>
       <use xlink:href="#DejaVuSans-2e" x="63.623047"/>
       <use xlink:href="#DejaVuSans-36" x="95.410156"/>
      </g>
     </g>
    </g>
    <g id="ytick_5">
     <g id="line2d_11">
      <g>
       <use xlink:href="#m356957b8c8" x="57.6" y="101.956045" style="stroke: #000000; stroke-width: 0.8"/>
      </g>
     </g>
     <g id="text_12">
      <!-- 0.8 -->
      <g transform="translate(34.696875 105.755264)scale(0.1 -0.1)">
       <use xlink:href="#DejaVuSans-30"/>
       <use xlink:href="#DejaVuSans-2e" x="63.623047"/>
       <use xlink:href="#DejaVuSans-38" x="95.410156"/>
      </g>
     </g>
    </g>
    <g id="ytick_6">
     <g id="line2d_12">
      <g>
       <use xlink:href="#m356957b8c8" x="57.6" y="53.568" style="stroke: #000000; stroke-width: 0.8"/>
      </g>
     </g>
     <g id="text_13">
      <!-- 1.0 -->
      <g transform="translate(34.696875 57.367219)scale(0.1 -0.1)">
       <use xlink:href="#DejaVuSans-31"/>
       <use xlink:href="#DejaVuSans-2e" x="63.623047"/>
       <use xlink:href="#DejaVuSans-30" x="95.410156"/>
      </g>
     </g>
    </g>
    <g id="text_14">
     <!-- $\frac{J(p)}{J_{max}}$ -->
     <g transform="translate(25.396875 181.628)rotate(-90)scale(0.1 -0.1)">
      <defs>
       <path id="DejaVuSans-Oblique-4a" d="M 1069 4666 
L 1703 4666 
L 856 325 
Q 691 -522 298 -901 
Q -94 -1281 -800 -1281 
L -1050 -1281 
L -947 -750 
L -750 -750 
Q -328 -750 -109 -509 
Q 109 -269 225 325 
L 1069 4666 
z
" transform="scale(0.015625)"/>
       <path id="DejaVuSans-28" d="M 1984 4856 
Q 1566 4138 1362 3434 
Q 1159 2731 1159 2009 
Q 1159 1288 1364 580 
Q 1569 -128 1984 -844 
L 1484 -844 
Q 1016 -109 783 600 
Q 550 1309 550 2009 
Q 550 2706 781 3412 
Q 1013 4119 1484 4856 
L 1984 4856 
z
" transform="scale(0.015625)"/>
       <path id="DejaVuSans-29" d="M 513 4856 
L 1013 4856 
Q 1481 4119 1714 3412 
Q 1947 2706 1947 2009 
Q 1947 1309 1714 600 
Q 1481 -109 1013 -844 
L 513 -844 
Q 928 -128 1133 580 
Q 1338 1288 1338 2009 
Q 1338 2731 1133 3434 
Q 928 4138 513 4856 
z
" transform="scale(0.015625)"/>
       <path id="DejaVuSans-Oblique-6d" d="M 5747 2113 
L 5338 0 
L 4763 0 
L 5166 2094 
Q 5191 2228 5203 2325 
Q 5216 2422 5216 2491 
Q 5216 2772 5059 2928 
Q 4903 3084 4622 3084 
Q 4203 3084 3875 2770 
Q 3547 2456 3450 1953 
L 3066 0 
L 2491 0 
L 2900 2094 
Q 2925 2209 2937 2307 
Q 2950 2406 2950 2484 
Q 2950 2769 2794 2926 
Q 2638 3084 2363 3084 
Q 1938 3084 1609 2770 
Q 1281 2456 1184 1953 
L 800 0 
L 225 0 
L 909 3500 
L 1484 3500 
L 1375 2956 
Q 1609 3263 1923 3423 
Q 2238 3584 2597 3584 
Q 2978 3584 3223 3384 
Q 3469 3184 3519 2828 
Q 3781 3197 4126 3390 
Q 4472 3584 4856 3584 
Q 5306 3584 5551 3325 
Q 5797 3066 5797 2591 
Q 5797 2488 5784 2364 
Q 5772 2241 5747 2113 
z
" transform="scale(0.015625)"/>
       <path id="DejaVuSans-Oblique-61" d="M 3438 1997 
L 3047 0 
L 2472 0 
L 2578 531 
Q 2325 219 2001 64 
Q 1678 -91 1281 -91 
Q 834 -91 548 182 
Q 263 456 263 884 
Q 263 1497 752 1853 
Q 1241 2209 2100 2209 
L 2900 2209 
L 2931 2363 
Q 2938 2388 2941 2417 
Q 2944 2447 2944 2509 
Q 2944 2788 2717 2942 
Q 2491 3097 2081 3097 
Q 1800 3097 1504 3025 
Q 1209 2953 897 2809 
L 997 3341 
Q 1322 3463 1633 3523 
Q 1944 3584 2234 3584 
Q 2853 3584 3176 3315 
Q 3500 3047 3500 2534 
Q 3500 2431 3484 2292 
Q 3469 2153 3438 1997 
z
M 2816 1759 
L 2241 1759 
Q 1534 1759 1195 1570 
Q 856 1381 856 984 
Q 856 709 1029 553 
Q 1203 397 1509 397 
Q 1978 397 2328 733 
Q 2678 1069 2791 1631 
L 2816 1759 
z
" transform="scale(0.015625)"/>
       <path id="DejaVuSans-Oblique-78" d="M 3841 3500 
L 2234 1784 
L 3219 0 
L 2559 0 
L 1819 1388 
L 531 0 
L -166 0 
L 1556 1844 
L 641 3500 
L 1300 3500 
L 1972 2234 
L 3144 3500 
L 3841 3500 
z
" transform="scale(0.015625)"/>
      </defs>
      <use xlink:href="#DejaVuSans-Oblique-4a" transform="translate(5 58.8875)scale(0.7)"/>
      <use xlink:href="#DejaVuSans-28" transform="translate(25.644531 58.8875)scale(0.7)"/>
      <use xlink:href="#DejaVuSans-Oblique-70" transform="translate(52.954102 58.8875)scale(0.7)"/>
      <use xlink:href="#DejaVuSans-29" transform="translate(97.387695 58.8875)scale(0.7)"/>
      <use xlink:href="#DejaVuSans-Oblique-4a" transform="translate(0 -37.954687)scale(0.7)"/>
      <use xlink:href="#DejaVuSans-Oblique-6d" transform="translate(20.644531 -49.439062)scale(0.49)"/>
      <use xlink:href="#DejaVuSans-Oblique-61" transform="translate(68.376465 -49.439062)scale(0.49)"/>
      <use xlink:href="#DejaVuSans-Oblique-78" transform="translate(98.40332 -49.439062)scale(0.49)"/>
      <path d="M 0 19.329688 
L 0 25.579688 
L 129.31543 25.579688 
L 129.31543 19.329688 
L 0 19.329688 
z
"/>
     </g>
    </g>
   </g>
   <g id="line2d_13">
    <path d="M 57.6 294.763828 
L 60.411969 53.568 
L 63.223937 295.405416 
L 66.035906 198.951302 
L 68.847874 290.750261 
L 71.659843 292.016974 
L 74.471811 294.8871 
L 77.28378 274.151632 
L 80.095748 294.58795 
L 82.907717 291.435939 
L 85.719685 295.470034 
L 88.531654 292.405618 
L 91.343622 292.029212 
L 94.155591 295.417985 
L 96.967559 292.192238 
L 99.779528 294.061844 
L 102.591496 294.025563 
L 105.403465 295.387719 
L 108.215433 295.257829 
L 111.027402 295.336517 
L 113.83937 295.284016 
L 116.651339 295.467743 
L 119.463307 295.09947 
L 122.275276 292.283832 
L 125.087244 295.185103 
L 127.899213 295.439013 
L 130.711181 295.006744 
L 133.52315 294.416668 
L 136.335118 295.428247 
L 139.147087 294.130676 
L 141.959055 295.462694 
L 144.771024 295.064813 
L 147.582992 295.316792 
L 150.394961 295.205371 
L 153.206929 295.468603 
L 156.018898 294.625255 
L 158.830866 295.477567 
L 161.642835 294.681568 
L 164.454803 295.457689 
L 170.07874 295.443309 
L 172.890709 295.165618 
L 184.138583 295.475645 
L 186.950551 295.14394 
L 189.76252 295.428628 
L 192.574488 295.457072 
L 195.386457 295.046009 
L 198.198425 295.387412 
L 203.822362 295.452124 
L 206.634331 294.938138 
L 209.446299 295.451865 
L 212.258268 294.385573 
L 215.070236 295.053435 
L 217.882205 295.137761 
L 220.694173 295.433628 
L 229.130079 295.441313 
L 231.942047 295.154313 
L 234.754016 295.477632 
L 237.565984 295.101152 
L 240.377953 295.478886 
L 243.189921 295.376764 
L 248.813858 295.480877 
L 251.625827 295.213906 
L 254.437795 295.470031 
L 257.249764 295.179197 
L 260.061732 295.480507 
L 262.873701 295.223714 
L 268.497638 295.477803 
L 282.55748 295.429964 
L 302.24126 295.483492 
L 307.865197 295.425613 
L 330.360945 295.422699 
L 335.984882 295.447719 
L 347.232756 295.474996 
L 358.48063 295.461055 
L 372.540472 295.47907 
L 380.976378 295.456104 
L 395.03622 295.481142 
L 414.72 295.415231 
L 414.72 295.415231 
" clip-path="url(#pb9dde60387)" style="fill: none; stroke: #1f77b4; stroke-width: 1.5; stroke-linecap: square"/>
   </g>
   <g id="line2d_14">
    <path d="M 57.6 247.548786 
L 60.411969 53.568 
L 63.223937 56.698935 
L 66.035906 54.914648 
L 68.847874 168.794294 
L 71.659843 211.147926 
L 74.471811 172.627318 
L 77.28378 231.191945 
L 80.095748 174.267413 
L 82.907717 274.55375 
L 85.719685 171.355791 
L 88.531654 233.794173 
L 91.343622 169.615339 
L 94.155591 249.246055 
L 96.967559 189.617887 
L 99.779528 240.600408 
L 102.591496 191.200392 
L 105.403465 216.434282 
L 108.215433 186.236257 
L 111.027402 231.63949 
L 113.83937 221.23223 
L 116.651339 246.48108 
L 119.463307 263.929368 
L 122.275276 250.339356 
L 125.087244 255.079129 
L 127.899213 268.184468 
L 130.711181 283.030051 
L 133.52315 274.648585 
L 136.335118 277.783053 
L 139.147087 266.01258 
L 141.959055 270.483067 
L 144.771024 262.174536 
L 147.582992 264.370855 
L 150.394961 257.851836 
L 153.206929 260.49011 
L 156.018898 267.932519 
L 158.830866 261.018181 
L 161.642835 274.256946 
L 164.454803 282.755526 
L 167.266772 247.942873 
L 170.07874 283.242911 
L 172.890709 247.633679 
L 175.702677 270.631069 
L 178.514646 268.124676 
L 181.326614 279.687269 
L 184.138583 276.43935 
L 186.950551 271.017521 
L 189.76252 271.006389 
L 192.574488 265.785493 
L 195.386457 279.1706 
L 198.198425 256.886221 
L 201.010394 262.254666 
L 203.822362 284.515367 
L 206.634331 265.663229 
L 209.446299 266.38055 
L 212.258268 282.707667 
L 215.070236 279.27029 
L 217.882205 284.240293 
L 220.694173 266.051847 
L 223.506142 285.110599 
L 226.31811 282.40042 
L 229.130079 285.537878 
L 231.942047 276.311382 
L 234.754016 278.674205 
L 237.565984 276.775274 
L 240.377953 275.91562 
L 243.189921 278.426696 
L 246.00189 280.589255 
L 248.813858 276.771325 
L 251.625827 281.596107 
L 254.437795 275.151184 
L 257.249764 278.550404 
L 260.061732 283.287094 
L 262.873701 274.505597 
L 265.685669 272.79069 
L 268.497638 281.783041 
L 271.309606 273.200184 
L 274.121575 284.175074 
L 276.933543 281.877066 
L 279.745512 281.494644 
L 282.55748 281.688311 
L 285.369449 277.355992 
L 288.181417 278.300043 
L 290.993386 285.601397 
L 293.805354 268.153773 
L 296.617323 271.416629 
L 299.429291 275.609228 
L 302.24126 280.55721 
L 305.053228 268.334013 
L 307.865197 286.094506 
L 310.677165 269.671624 
L 313.489134 285.764022 
L 316.301102 274.248709 
L 319.113071 280.403721 
L 321.925039 283.190647 
L 324.737008 282.756338 
L 327.548976 284.865684 
L 330.360945 281.574519 
L 333.172913 281.540221 
L 335.984882 281.147874 
L 338.79685 280.141643 
L 341.608819 285.0489 
L 344.420787 277.862064 
L 347.232756 284.948071 
L 350.044724 278.457609 
L 352.856693 284.999941 
L 355.668661 281.482038 
L 358.48063 282.611599 
L 361.292598 276.088407 
L 364.104567 285.96415 
L 366.916535 274.289763 
L 369.728504 280.667175 
L 372.540472 280.670927 
L 375.352441 282.635098 
L 380.976378 279.965461 
L 383.788346 286.575446 
L 386.600315 283.175465 
L 389.412283 284.7303 
L 392.224252 282.667562 
L 395.03622 286.657022 
L 397.848189 282.195165 
L 400.660157 286.787628 
L 403.472126 282.297435 
L 406.284094 272.085938 
L 409.096063 283.302068 
L 411.908031 279.756991 
L 414.72 282.54442 
L 414.72 282.54442 
" clip-path="url(#pb9dde60387)" style="fill: none; stroke: #ff7f0e; stroke-width: 1.5; stroke-linecap: square"/>
   </g>
   <g id="line2d_15">
    <path d="M 57.6 256.79779 
L 414.72 256.79779 
" clip-path="url(#pb9dde60387)" style="fill: none; stroke-dasharray: 5.55,2.4; stroke-dashoffset: 0; stroke: #808080; stroke-width: 1.5"/>
   </g>
   <g id="patch_3">
    <path d="M 57.6 307.584 
L 57.6 41.472 
" style="fill: none; stroke: #000000; stroke-width: 0.8; stroke-linejoin: miter; stroke-linecap: square"/>
   </g>
   <g id="patch_4">
    <path d="M 414.72 307.584 
L 414.72 41.472 
" style="fill: none; stroke: #000000; stroke-width: 0.8; stroke-linejoin: miter; stroke-linecap: square"/>
   </g>
   <g id="patch_5">
    <path d="M 57.6 307.584 
L 414.72 307.584 
" style="fill: none; stroke: #000000; stroke-width: 0.8; stroke-linejoin: miter; stroke-linecap: square"/>
   </g>
   <g id="patch_6">
    <path d="M 57.6 41.472 
L 414.72 41.472 
" style="fill: none; stroke: #000000; stroke-width: 0.8; stroke-linejoin: miter; stroke-linecap: square"/>
   </g>
   <g id="text_15">
    <!-- Inverse error function $J$ on recorded signal -->
    <g transform="translate(109.44 35.472)scale(0.12 -0.12)">
     <defs>
      <path id="DejaVuSans-49" d="M 628 4666 
L 1259 4666 
L 1259 0 
L 628 0 
L 628 4666 
z
" transform="scale(0.015625)"/>
      <path id="DejaVuSans-6e" d="M 3513 2113 
L 3513 0 
L 2938 0 
L 2938 2094 
Q 2938 2591 2744 2837 
Q 2550 3084 2163 3084 
Q 1697 3084 1428 2787 
Q 1159 2491 1159 1978 
L 1159 0 
L 581 0 
L 581 3500 
L 1159 3500 
L 1159 2956 
Q 1366 3272 1645 3428 
Q 1925 3584 2291 3584 
Q 2894 3584 3203 3211 
Q 3513 2838 3513 2113 
z
" transform="scale(0.015625)"/>
      <path id="DejaVuSans-76" d="M 191 3500 
L 800 3500 
L 1894 563 
L 2988 3500 
L 3597 3500 
L 2284 0 
L 1503 0 
L 191 3500 
z
" transform="scale(0.015625)"/>
      <path id="DejaVuSans-65" d="M 3597 1894 
L 3597 1613 
L 953 1613 
Q 991 1019 1311 708 
Q 1631 397 2203 397 
Q 2534 397 2845 478 
Q 3156 559 3463 722 
L 3463 178 
Q 3153 47 2828 -22 
Q 2503 -91 2169 -91 
Q 1331 -91 842 396 
Q 353 884 353 1716 
Q 353 2575 817 3079 
Q 1281 3584 2069 3584 
Q 2775 3584 3186 3129 
Q 3597 2675 3597 1894 
z
M 3022 2063 
Q 3016 2534 2758 2815 
Q 2500 3097 2075 3097 
Q 1594 3097 1305 2825 
Q 1016 2553 972 2059 
L 3022 2063 
z
" transform="scale(0.015625)"/>
      <path id="DejaVuSans-72" d="M 2631 2963 
Q 2534 3019 2420 3045 
Q 2306 3072 2169 3072 
Q 1681 3072 1420 2755 
Q 1159 2438 1159 1844 
L 1159 0 
L 581 0 
L 581 3500 
L 1159 3500 
L 1159 2956 
Q 1341 3275 1631 3429 
Q 1922 3584 2338 3584 
Q 2397 3584 2469 3576 
Q 2541 3569 2628 3553 
L 2631 2963 
z
" transform="scale(0.015625)"/>
      <path id="DejaVuSans-73" d="M 2834 3397 
L 2834 2853 
Q 2591 2978 2328 3040 
Q 2066 3103 1784 3103 
Q 1356 3103 1142 2972 
Q 928 2841 928 2578 
Q 928 2378 1081 2264 
Q 1234 2150 1697 2047 
L 1894 2003 
Q 2506 1872 2764 1633 
Q 3022 1394 3022 966 
Q 3022 478 2636 193 
Q 2250 -91 1575 -91 
Q 1294 -91 989 -36 
Q 684 19 347 128 
L 347 722 
Q 666 556 975 473 
Q 1284 391 1588 391 
Q 1994 391 2212 530 
Q 2431 669 2431 922 
Q 2431 1156 2273 1281 
Q 2116 1406 1581 1522 
L 1381 1569 
Q 847 1681 609 1914 
Q 372 2147 372 2553 
Q 372 3047 722 3315 
Q 1072 3584 1716 3584 
Q 2034 3584 2315 3537 
Q 2597 3491 2834 3397 
z
" transform="scale(0.015625)"/>
      <path id="DejaVuSans-20" transform="scale(0.015625)"/>
      <path id="DejaVuSans-6f" d="M 1959 3097 
Q 1497 3097 1228 2736 
Q 959 2375 959 1747 
Q 959 1119 1226 758 
Q 1494 397 1959 397 
Q 2419 397 2687 759 
Q 2956 1122 2956 1747 
Q 2956 2369 2687 2733 
Q 2419 3097 1959 3097 
z
M 1959 3584 
Q 2709 3584 3137 3096 
Q 3566 2609 3566 1747 
Q 3566 888 3137 398 
Q 2709 -91 1959 -91 
Q 1206 -91 779 398 
Q 353 888 353 1747 
Q 353 2609 779 3096 
Q 1206 3584 1959 3584 
z
" transform="scale(0.015625)"/>
      <path id="DejaVuSans-66" d="M 2375 4863 
L 2375 4384 
L 1825 4384 
Q 1516 4384 1395 4259 
Q 1275 4134 1275 3809 
L 1275 3500 
L 2222 3500 
L 2222 3053 
L 1275 3053 
L 1275 0 
L 697 0 
L 697 3053 
L 147 3053 
L 147 3500 
L 697 3500 
L 697 3744 
Q 697 4328 969 4595 
Q 1241 4863 1831 4863 
L 2375 4863 
z
" transform="scale(0.015625)"/>
      <path id="DejaVuSans-75" d="M 544 1381 
L 544 3500 
L 1119 3500 
L 1119 1403 
Q 1119 906 1312 657 
Q 1506 409 1894 409 
Q 2359 409 2629 706 
Q 2900 1003 2900 1516 
L 2900 3500 
L 3475 3500 
L 3475 0 
L 2900 0 
L 2900 538 
Q 2691 219 2414 64 
Q 2138 -91 1772 -91 
Q 1169 -91 856 284 
Q 544 659 544 1381 
z
M 1991 3584 
L 1991 3584 
z
" transform="scale(0.015625)"/>
      <path id="DejaVuSans-63" d="M 3122 3366 
L 3122 2828 
Q 2878 2963 2633 3030 
Q 2388 3097 2138 3097 
Q 1578 3097 1268 2742 
Q 959 2388 959 1747 
Q 959 1106 1268 751 
Q 1578 397 2138 397 
Q 2388 397 2633 464 
Q 2878 531 3122 666 
L 3122 134 
Q 2881 22 2623 -34 
Q 2366 -91 2075 -91 
Q 1284 -91 818 406 
Q 353 903 353 1747 
Q 353 2603 823 3093 
Q 1294 3584 2113 3584 
Q 2378 3584 2631 3529 
Q 2884 3475 3122 3366 
z
" transform="scale(0.015625)"/>
      <path id="DejaVuSans-74" d="M 1172 4494 
L 1172 3500 
L 2356 3500 
L 2356 3053 
L 1172 3053 
L 1172 1153 
Q 1172 725 1289 603 
Q 1406 481 1766 481 
L 2356 481 
L 2356 0 
L 1766 0 
Q 1100 0 847 248 
Q 594 497 594 1153 
L 594 3053 
L 172 3053 
L 172 3500 
L 594 3500 
L 594 4494 
L 1172 4494 
z
" transform="scale(0.015625)"/>
      <path id="DejaVuSans-69" d="M 603 3500 
L 1178 3500 
L 1178 0 
L 603 0 
L 603 3500 
z
M 603 4863 
L 1178 4863 
L 1178 4134 
L 603 4134 
L 603 4863 
z
" transform="scale(0.015625)"/>
      <path id="DejaVuSans-64" d="M 2906 2969 
L 2906 4863 
L 3481 4863 
L 3481 0 
L 2906 0 
L 2906 525 
Q 2725 213 2448 61 
Q 2172 -91 1784 -91 
Q 1150 -91 751 415 
Q 353 922 353 1747 
Q 353 2572 751 3078 
Q 1150 3584 1784 3584 
Q 2172 3584 2448 3432 
Q 2725 3281 2906 2969 
z
M 947 1747 
Q 947 1113 1208 752 
Q 1469 391 1925 391 
Q 2381 391 2643 752 
Q 2906 1113 2906 1747 
Q 2906 2381 2643 2742 
Q 2381 3103 1925 3103 
Q 1469 3103 1208 2742 
Q 947 2381 947 1747 
z
" transform="scale(0.015625)"/>
      <path id="DejaVuSans-67" d="M 2906 1791 
Q 2906 2416 2648 2759 
Q 2391 3103 1925 3103 
Q 1463 3103 1205 2759 
Q 947 2416 947 1791 
Q 947 1169 1205 825 
Q 1463 481 1925 481 
Q 2391 481 2648 825 
Q 2906 1169 2906 1791 
z
M 3481 434 
Q 3481 -459 3084 -895 
Q 2688 -1331 1869 -1331 
Q 1566 -1331 1297 -1286 
Q 1028 -1241 775 -1147 
L 775 -588 
Q 1028 -725 1275 -790 
Q 1522 -856 1778 -856 
Q 2344 -856 2625 -561 
Q 2906 -266 2906 331 
L 2906 616 
Q 2728 306 2450 153 
Q 2172 0 1784 0 
Q 1141 0 747 490 
Q 353 981 353 1791 
Q 353 2603 747 3093 
Q 1141 3584 1784 3584 
Q 2172 3584 2450 3431 
Q 2728 3278 2906 2969 
L 2906 3500 
L 3481 3500 
L 3481 434 
z
" transform="scale(0.015625)"/>
      <path id="DejaVuSans-61" d="M 2194 1759 
Q 1497 1759 1228 1600 
Q 959 1441 959 1056 
Q 959 750 1161 570 
Q 1363 391 1709 391 
Q 2188 391 2477 730 
Q 2766 1069 2766 1631 
L 2766 1759 
L 2194 1759 
z
M 3341 1997 
L 3341 0 
L 2766 0 
L 2766 531 
Q 2569 213 2275 61 
Q 1981 -91 1556 -91 
Q 1019 -91 701 211 
Q 384 513 384 1019 
Q 384 1609 779 1909 
Q 1175 2209 1959 2209 
L 2766 2209 
L 2766 2266 
Q 2766 2663 2505 2880 
Q 2244 3097 1772 3097 
Q 1472 3097 1187 3025 
Q 903 2953 641 2809 
L 641 3341 
Q 956 3463 1253 3523 
Q 1550 3584 1831 3584 
Q 2591 3584 2966 3190 
Q 3341 2797 3341 1997 
z
" transform="scale(0.015625)"/>
      <path id="DejaVuSans-6c" d="M 603 4863 
L 1178 4863 
L 1178 0 
L 603 0 
L 603 4863 
z
" transform="scale(0.015625)"/>
     </defs>
     <use xlink:href="#DejaVuSans-49" transform="translate(0 0.015625)"/>
     <use xlink:href="#DejaVuSans-6e" transform="translate(29.492188 0.015625)"/>
     <use xlink:href="#DejaVuSans-76" transform="translate(92.871094 0.015625)"/>
     <use xlink:href="#DejaVuSans-65" transform="translate(152.050781 0.015625)"/>
     <use xlink:href="#DejaVuSans-72" transform="translate(213.574219 0.015625)"/>
     <use xlink:href="#DejaVuSans-73" transform="translate(254.6875 0.015625)"/>
     <use xlink:href="#DejaVuSans-65" transform="translate(306.787109 0.015625)"/>
     <use xlink:href="#DejaVuSans-20" transform="translate(368.310547 0.015625)"/>
     <use xlink:href="#DejaVuSans-65" transform="translate(400.097656 0.015625)"/>
     <use xlink:href="#DejaVuSans-72" transform="translate(461.621094 0.015625)"/>
     <use xlink:href="#DejaVuSans-72" transform="translate(502.734375 0.015625)"/>
     <use xlink:href="#DejaVuSans-6f" transform="translate(543.847656 0.015625)"/>
     <use xlink:href="#DejaVuSans-72" transform="translate(605.029297 0.015625)"/>
     <use xlink:href="#DejaVuSans-20" transform="translate(646.142578 0.015625)"/>
     <use xlink:href="#DejaVuSans-66" transform="translate(677.929688 0.015625)"/>
     <use xlink:href="#DejaVuSans-75" transform="translate(713.134766 0.015625)"/>
     <use xlink:href="#DejaVuSans-6e" transform="translate(776.513672 0.015625)"/>
     <use xlink:href="#DejaVuSans-63" transform="translate(839.892578 0.015625)"/>
     <use xlink:href="#DejaVuSans-74" transform="translate(894.873047 0.015625)"/>
     <use xlink:href="#DejaVuSans-69" transform="translate(934.082031 0.015625)"/>
     <use xlink:href="#DejaVuSans-6f" transform="translate(961.865234 0.015625)"/>
     <use xlink:href="#DejaVuSans-6e" transform="translate(1023.046875 0.015625)"/>
     <use xlink:href="#DejaVuSans-20" transform="translate(1086.425781 0.015625)"/>
     <use xlink:href="#DejaVuSans-Oblique-4a" transform="translate(1118.212891 0.015625)"/>
     <use xlink:href="#DejaVuSans-20" transform="translate(1147.705078 0.015625)"/>
     <use xlink:href="#DejaVuSans-6f" transform="translate(1179.492188 0.015625)"/>
     <use xlink:href="#DejaVuSans-6e" transform="translate(1240.673828 0.015625)"/>
     <use xlink:href="#DejaVuSans-20" transform="translate(1304.052734 0.015625)"/>
     <use xlink:href="#DejaVuSans-72" transform="translate(1335.839844 0.015625)"/>
     <use xlink:href="#DejaVuSans-65" transform="translate(1376.953125 0.015625)"/>
     <use xlink:href="#DejaVuSans-63" transform="translate(1438.476562 0.015625)"/>
     <use xlink:href="#DejaVuSans-6f" transform="translate(1493.457031 0.015625)"/>
     <use xlink:href="#DejaVuSans-72" transform="translate(1554.638672 0.015625)"/>
     <use xlink:href="#DejaVuSans-64" transform="translate(1595.751953 0.015625)"/>
     <use xlink:href="#DejaVuSans-65" transform="translate(1659.228516 0.015625)"/>
     <use xlink:href="#DejaVuSans-64" transform="translate(1720.751953 0.015625)"/>
     <use xlink:href="#DejaVuSans-20" transform="translate(1784.228516 0.015625)"/>
     <use xlink:href="#DejaVuSans-73" transform="translate(1816.015625 0.015625)"/>
     <use xlink:href="#DejaVuSans-69" transform="translate(1868.115234 0.015625)"/>
     <use xlink:href="#DejaVuSans-67" transform="translate(1895.898438 0.015625)"/>
     <use xlink:href="#DejaVuSans-6e" transform="translate(1959.375 0.015625)"/>
     <use xlink:href="#DejaVuSans-61" transform="translate(2022.753906 0.015625)"/>
     <use xlink:href="#DejaVuSans-6c" transform="translate(2084.033203 0.015625)"/>
    </g>
   </g>
   <g id="legend_1">
    <g id="patch_7">
     <path d="M 217.452812 93.506375 
L 407.72 93.506375 
Q 409.72 93.506375 409.72 91.506375 
L 409.72 48.472 
Q 409.72 46.472 407.72 46.472 
L 217.452812 46.472 
Q 215.452812 46.472 215.452812 48.472 
L 215.452812 91.506375 
Q 215.452812 93.506375 217.452812 93.506375 
z
" style="fill: #ffffff; opacity: 0.8; stroke: #cccccc; stroke-linejoin: miter"/>
    </g>
    <g id="line2d_16">
     <path d="M 219.452812 54.570438 
L 229.452812 54.570438 
L 239.452812 54.570438 
" style="fill: none; stroke: #1f77b4; stroke-width: 1.5; stroke-linecap: square"/>
    </g>
    <g id="text_16">
     <!-- Whitened microphonic signal -->
     <g transform="translate(247.452812 58.070438)scale(0.1 -0.1)">
      <defs>
       <path id="DejaVuSans-57" d="M 213 4666 
L 850 4666 
L 1831 722 
L 2809 4666 
L 3519 4666 
L 4500 722 
L 5478 4666 
L 6119 4666 
L 4947 0 
L 4153 0 
L 3169 4050 
L 2175 0 
L 1381 0 
L 213 4666 
z
" transform="scale(0.015625)"/>
       <path id="DejaVuSans-68" d="M 3513 2113 
L 3513 0 
L 2938 0 
L 2938 2094 
Q 2938 2591 2744 2837 
Q 2550 3084 2163 3084 
Q 1697 3084 1428 2787 
Q 1159 2491 1159 1978 
L 1159 0 
L 581 0 
L 581 4863 
L 1159 4863 
L 1159 2956 
Q 1366 3272 1645 3428 
Q 1925 3584 2291 3584 
Q 2894 3584 3203 3211 
Q 3513 2838 3513 2113 
z
" transform="scale(0.015625)"/>
       <path id="DejaVuSans-6d" d="M 3328 2828 
Q 3544 3216 3844 3400 
Q 4144 3584 4550 3584 
Q 5097 3584 5394 3201 
Q 5691 2819 5691 2113 
L 5691 0 
L 5113 0 
L 5113 2094 
Q 5113 2597 4934 2840 
Q 4756 3084 4391 3084 
Q 3944 3084 3684 2787 
Q 3425 2491 3425 1978 
L 3425 0 
L 2847 0 
L 2847 2094 
Q 2847 2600 2669 2842 
Q 2491 3084 2119 3084 
Q 1678 3084 1418 2786 
Q 1159 2488 1159 1978 
L 1159 0 
L 581 0 
L 581 3500 
L 1159 3500 
L 1159 2956 
Q 1356 3278 1631 3431 
Q 1906 3584 2284 3584 
Q 2666 3584 2933 3390 
Q 3200 3197 3328 2828 
z
" transform="scale(0.015625)"/>
       <path id="DejaVuSans-70" d="M 1159 525 
L 1159 -1331 
L 581 -1331 
L 581 3500 
L 1159 3500 
L 1159 2969 
Q 1341 3281 1617 3432 
Q 1894 3584 2278 3584 
Q 2916 3584 3314 3078 
Q 3713 2572 3713 1747 
Q 3713 922 3314 415 
Q 2916 -91 2278 -91 
Q 1894 -91 1617 61 
Q 1341 213 1159 525 
z
M 3116 1747 
Q 3116 2381 2855 2742 
Q 2594 3103 2138 3103 
Q 1681 3103 1420 2742 
Q 1159 2381 1159 1747 
Q 1159 1113 1420 752 
Q 1681 391 2138 391 
Q 2594 391 2855 752 
Q 3116 1113 3116 1747 
z
" transform="scale(0.015625)"/>
      </defs>
      <use xlink:href="#DejaVuSans-57"/>
      <use xlink:href="#DejaVuSans-68" x="98.876953"/>
      <use xlink:href="#DejaVuSans-69" x="162.255859"/>
      <use xlink:href="#DejaVuSans-74" x="190.039062"/>
      <use xlink:href="#DejaVuSans-65" x="229.248047"/>
      <use xlink:href="#DejaVuSans-6e" x="290.771484"/>
      <use xlink:href="#DejaVuSans-65" x="354.150391"/>
      <use xlink:href="#DejaVuSans-64" x="415.673828"/>
      <use xlink:href="#DejaVuSans-20" x="479.150391"/>
      <use xlink:href="#DejaVuSans-6d" x="510.9375"/>
      <use xlink:href="#DejaVuSans-69" x="608.349609"/>
      <use xlink:href="#DejaVuSans-63" x="636.132812"/>
      <use xlink:href="#DejaVuSans-72" x="691.113281"/>
      <use xlink:href="#DejaVuSans-6f" x="729.976562"/>
      <use xlink:href="#DejaVuSans-70" x="791.158203"/>
      <use xlink:href="#DejaVuSans-68" x="854.634766"/>
      <use xlink:href="#DejaVuSans-6f" x="918.013672"/>
      <use xlink:href="#DejaVuSans-6e" x="979.195312"/>
      <use xlink:href="#DejaVuSans-69" x="1042.574219"/>
      <use xlink:href="#DejaVuSans-63" x="1070.357422"/>
      <use xlink:href="#DejaVuSans-20" x="1125.337891"/>
      <use xlink:href="#DejaVuSans-73" x="1157.125"/>
      <use xlink:href="#DejaVuSans-69" x="1209.224609"/>
      <use xlink:href="#DejaVuSans-67" x="1237.007812"/>
      <use xlink:href="#DejaVuSans-6e" x="1300.484375"/>
      <use xlink:href="#DejaVuSans-61" x="1363.863281"/>
      <use xlink:href="#DejaVuSans-6c" x="1425.142578"/>
     </g>
    </g>
    <g id="line2d_17">
     <path d="M 219.452812 69.248563 
L 229.452812 69.248563 
L 239.452812 69.248563 
" style="fill: none; stroke: #ff7f0e; stroke-width: 1.5; stroke-linecap: square"/>
    </g>
    <g id="text_17">
     <!-- Whitened accelerometric signal -->
     <g transform="translate(247.452812 72.748563)scale(0.1 -0.1)">
      <use xlink:href="#DejaVuSans-57"/>
      <use xlink:href="#DejaVuSans-68" x="98.876953"/>
      <use xlink:href="#DejaVuSans-69" x="162.255859"/>
      <use xlink:href="#DejaVuSans-74" x="190.039062"/>
      <use xlink:href="#DejaVuSans-65" x="229.248047"/>
      <use xlink:href="#DejaVuSans-6e" x="290.771484"/>
      <use xlink:href="#DejaVuSans-65" x="354.150391"/>
      <use xlink:href="#DejaVuSans-64" x="415.673828"/>
      <use xlink:href="#DejaVuSans-20" x="479.150391"/>
      <use xlink:href="#DejaVuSans-61" x="510.9375"/>
      <use xlink:href="#DejaVuSans-63" x="572.216797"/>
      <use xlink:href="#DejaVuSans-63" x="627.197266"/>
      <use xlink:href="#DejaVuSans-65" x="682.177734"/>
      <use xlink:href="#DejaVuSans-6c" x="743.701172"/>
      <use xlink:href="#DejaVuSans-65" x="771.484375"/>
      <use xlink:href="#DejaVuSans-72" x="833.007812"/>
      <use xlink:href="#DejaVuSans-6f" x="871.871094"/>
      <use xlink:href="#DejaVuSans-6d" x="933.052734"/>
      <use xlink:href="#DejaVuSans-65" x="1030.464844"/>
      <use xlink:href="#DejaVuSans-74" x="1091.988281"/>
      <use xlink:href="#DejaVuSans-72" x="1131.197266"/>
      <use xlink:href="#DejaVuSans-69" x="1172.310547"/>
      <use xlink:href="#DejaVuSans-63" x="1200.09375"/>
      <use xlink:href="#DejaVuSans-20" x="1255.074219"/>
      <use xlink:href="#DejaVuSans-73" x="1286.861328"/>
      <use xlink:href="#DejaVuSans-69" x="1338.960938"/>
      <use xlink:href="#DejaVuSans-67" x="1366.744141"/>
      <use xlink:href="#DejaVuSans-6e" x="1430.220703"/>
      <use xlink:href="#DejaVuSans-61" x="1493.599609"/>
      <use xlink:href="#DejaVuSans-6c" x="1554.878906"/>
     </g>
    </g>
    <g id="line2d_18">
     <path d="M 219.452812 83.926688 
L 229.452812 83.926688 
L 239.452812 83.926688 
" style="fill: none; stroke-dasharray: 5.55,2.4; stroke-dashoffset: 0; stroke: #808080; stroke-width: 1.5"/>
    </g>
    <g id="text_18">
     <!-- Detection threshold -->
     <g transform="translate(247.452812 87.426688)scale(0.1 -0.1)">
      <defs>
       <path id="DejaVuSans-44" d="M 1259 4147 
L 1259 519 
L 2022 519 
Q 2988 519 3436 956 
Q 3884 1394 3884 2338 
Q 3884 3275 3436 3711 
Q 2988 4147 2022 4147 
L 1259 4147 
z
M 628 4666 
L 1925 4666 
Q 3281 4666 3915 4102 
Q 4550 3538 4550 2338 
Q 4550 1131 3912 565 
Q 3275 0 1925 0 
L 628 0 
L 628 4666 
z
" transform="scale(0.015625)"/>
      </defs>
      <use xlink:href="#DejaVuSans-44"/>
      <use xlink:href="#DejaVuSans-65" x="77.001953"/>
      <use xlink:href="#DejaVuSans-74" x="138.525391"/>
      <use xlink:href="#DejaVuSans-65" x="177.734375"/>
      <use xlink:href="#DejaVuSans-63" x="239.257812"/>
      <use xlink:href="#DejaVuSans-74" x="294.238281"/>
      <use xlink:href="#DejaVuSans-69" x="333.447266"/>
      <use xlink:href="#DejaVuSans-6f" x="361.230469"/>
      <use xlink:href="#DejaVuSans-6e" x="422.412109"/>
      <use xlink:href="#DejaVuSans-20" x="485.791016"/>
      <use xlink:href="#DejaVuSans-74" x="517.578125"/>
      <use xlink:href="#DejaVuSans-68" x="556.787109"/>
      <use xlink:href="#DejaVuSans-72" x="620.166016"/>
      <use xlink:href="#DejaVuSans-65" x="659.029297"/>
      <use xlink:href="#DejaVuSans-73" x="720.552734"/>
      <use xlink:href="#DejaVuSans-68" x="772.652344"/>
      <use xlink:href="#DejaVuSans-6f" x="836.03125"/>
      <use xlink:href="#DejaVuSans-6c" x="897.212891"/>
      <use xlink:href="#DejaVuSans-64" x="924.996094"/>
     </g>
    </g>
   </g>
  </g>
 </g>
 <defs>
  <clipPath id="pb9dde60387">
   <rect x="57.6" y="41.472" width="357.12" height="266.112"/>
  </clipPath>
 </defs>
</svg>
